{"title":"The.Dramatics.A.Comedy.2015.WEBRip.480p.x264.AAC-VYTO","uid":12170489,"size":321260547,"categoryP":"video","categoryS":"movies","magnet":"?xt=urn:btih:c1d4626ce80629c81dff2253367f8a2ea820f529&amp;dn=The.Dramatics.A.Comedy.2015.WEBRip.480p.x264.AAC-VYTO&amp;tr=udp%3A%2F%2Ftracker.openbittorrent.com%3A80&amp;tr=udp%3A%2F%2Fopen.demonii.com%3A1337&amp;tr=udp%3A%2F%2Ftracker.coppersurfer.tk%3A6969&amp;tr=udp%3A%2F%2Fexodus.desync.com%3A6969","seeders":0,"leechers":1,"uploader":"ValidusVyto","files":7,"time":1438164749,"description":"____    ____ ____    ____ .___________.  ______   \n     /   /      /   / |           | /  __    \n    /   /      /   /  `---|  |----`|  |  |  | \n        /     _    _/       |  |     |  |  |  | \n       /        |  |         |  |     |  `--'  | \n    __/         |__|         |__|      ______/  \n                                                  \nPresenting Small Encodes with quality for years!\n                                                                                                   \n                                                                                                   \n\nThe.Dramatics.A.Comedy.2015.WEBRip.480p.x264.AAC-VYTO\n\n\nGenre: Comedy, Romance   &lt;a href=&quot;\nhttp://www.imdb.com/title/tt2633666/&quot; rel=&quot;nofollow&quot; target=&quot;_NEW&quot;&gt;\nhttp://www.imdb.com/title/tt2633666/&lt;/a&gt;\n\n\nGeneral\nFormat                         : MPEG-4\nFile size                      : 301 MiB\nDuration                       : 1h 29mn\nOverall bit rate               : 468 Kbps\n\nVideo\nFormat                         : AVC\nBit rate                       : 418 Kbps\nWidth                          : 720 pixels\nHeight                         : 304 pixels\nDisplay aspect ratio           : 2.35:1\nFrame rate mode                : Constant\nFrame rate                     : 23.976 fps\nBit depth                      : 8 bits\nStream size                    : 268 MiB (89%)\nWriting library                : x264 core 144\n\nAudio\nID                             : 2\nFormat                         : AAC\nBit rate                       : 48.0 Kbps\nChannel(s)                     : 2 channels\nChannel positions              : Front: L R\nSampling rate                  : 48.0 KHz\nStream size                    : 30.8 MiB (10%)\nLanguage                       : English\n\nSubtitle                       : Yes (English)\nSource                         : WEB-DL\n\n\nScreenshots:\n &lt;a href=&quot;\nhttp://ititli.com/1R&quot; rel=&quot;nofollow&quot; target=&quot;_NEW&quot;&gt;\nhttp://ititli.com/1R&lt;/a&gt; &lt;a href=&quot;\nhttp://ititli.com/1y&quot; rel=&quot;nofollow&quot; target=&quot;_NEW&quot;&gt;\nhttp://ititli.com/1y&lt;/a&gt; &lt;a href=&quot;\nhttp://ititli.com/13&quot; rel=&quot;nofollow&quot; target=&quot;_NEW&quot;&gt;\nhttp://ititli.com/13&lt;/a&gt; &lt;a href=&quot;\nhttp://ititli.com/1E&quot; rel=&quot;nofollow&quot; target=&quot;_NEW&quot;&gt;\nhttp://ititli.com/1E&lt;/a&gt; &lt;a href=&quot;\nhttp://ititli.com/1Q&quot; rel=&quot;nofollow&quot; target=&quot;_NEW&quot;&gt;\nhttp://ititli.com/1Q&lt;/a&gt; &lt;a href=&quot;\nhttp://ititli.com/1S&quot; rel=&quot;nofollow&quot; target=&quot;_NEW&quot;&gt;\nhttp://ititli.com/1S&lt;/a&gt; &lt;a href=&quot;\nhttp://ititli.com/1Z&quot; rel=&quot;nofollow&quot; target=&quot;_NEW&quot;&gt;\nhttp://ititli.com/1Z&lt;/a&gt; &lt;a href=&quot;\nhttp://ititli.com/1c&quot; rel=&quot;nofollow&quot; target=&quot;_NEW&quot;&gt;\nhttp://ititli.com/1c&lt;/a&gt; &lt;a href=&quot;\nhttp://ititli.com/1i&quot; rel=&quot;nofollow&quot; target=&quot;_NEW&quot;&gt;\nhttp://ititli.com/1i&lt;/a&gt; &lt;a href=&quot;\nhttp://ititli.com/1p&quot; rel=&quot;nofollow&quot; target=&quot;_NEW&quot;&gt;\nhttp://ititli.com/1p&lt;/a&gt; &lt;a href=&quot;\nhttp://ititli.com/1D&quot; rel=&quot;nofollow&quot; target=&quot;_NEW&quot;&gt;\nhttp://ititli.com/1D&lt;/a&gt; &lt;a href=&quot;\nhttp://ititli.com/1a&quot; rel=&quot;nofollow&quot; target=&quot;_NEW&quot;&gt;\nhttp://ititli.com/1a&lt;/a&gt;\n\n----------------------------------------------------------------------------------------------------\n\n\nEncoder Notes: Looking For Early Access To Anything You Can Provide DVDScr, R5, DVDR, BluRay, Direct\nAudio, Music Releases and Seedboxes. If You Got anything to offer please contact us.\n\nSupport us by donating BC - 1FgwdzPsd1y25Gea8wP1qni35uGCtmkRCD","torrent":{"xt":"urn:btih:c1d4626ce80629c81dff2253367f8a2ea820f529","amp;dn":"The.Dramatics.A.Comedy.2015.WEBRip.480p.x264.AAC-VYTO","amp;tr":["udp%3A%2F%2Ftracker.openbittorrent.com%3A80","udp%3A%2F%2Fopen.demonii.com%3A1337","udp%3A%2F%2Ftracker.coppersurfer.tk%3A6969","udp%3A%2F%2Fexodus.desync.com%3A6969"],"infoHash":"c1d4626ce80629c81dff2253367f8a2ea820f529","infoHashBuffer":{"type":"Buffer","data":[193,212,98,108,232,6,41,200,29,255,34,83,54,127,138,46,168,32,245,41]},"announce":[],"urlList":[]}}